<svg viewBox="-1 -1 150 150" xmlns="http://www.w3.org/2000/svg" id="Package-Scan-1--Streamline-Ux.svg" height="150" width="150"><desc>Package Scan 1 Streamline Illustration: https://streamlinehq.com</desc><path d="M6.66 74a59.2 59.2 0 1 0 118.4 0 59.2 59.2 0 1 0 -118.4 0Z" fill="#daedf700" stroke="#daedf700" stroke-width="2"></path><path d="m52.35944 22.2444 37.69856 0 0 35.184039999999996 -37.69856 0Z" fill="#debb7e" stroke-width="2"></path><path d="M90.058 24.575400000000002a2.331 2.331 0 0 0 -2.331 -2.331H54.69044a2.331 2.331 0 0 0 -2.331 2.331v5.69208a2.331 2.331 0 0 1 2.331 -2.331h33.03656a2.331 2.331 0 0 1 2.331 2.331Z" fill="#f7e5c6" stroke-width="2"></path><path d="M67.44064 22.2444h7.5391200000000005v17.591279999999998h-7.5391200000000005z" fill="#ffffff" stroke-width="2"></path><path d="M67.44064 22.2444h7.5391200000000005v17.591279999999998h-7.5391200000000005z" fill="none" stroke="#45413c" stroke-linecap="round" stroke-linejoin="round" stroke-width="2"></path><path d="m52.35944 22.2444 37.69856 0 0 35.184039999999996 -37.69856 0Z" fill="none" stroke="#45413c" stroke-linecap="round" stroke-linejoin="round" stroke-width="2"></path><path d="M59.755 121.5302a9.324 2.331 0 1 0 18.648 0 9.324 2.331 0 1 0 -18.648 0Z" fill="#45413c" opacity=".15" stroke-width="2"></path><path d="m26.344 87.88535999999999 22.532999999999998 0 0 18.648 -22.532999999999998 0Z" fill="#debb7e" stroke-width="2"></path><path d="M48.876999999999995 91.77036H26.344v-2.331a1.554 1.554 0 0 1 1.554 -1.554h19.425a1.55252 1.55252 0 0 1 1.554 1.554Z" fill="#f0d3a8" stroke-width="2"></path><path d="m26.344 87.88535999999999 22.532999999999998 0 0 18.648 -22.532999999999998 0Z" fill="none" stroke="#45413c" stroke-linecap="round" stroke-linejoin="round" stroke-width="2"></path><path d="M34.114 87.88535999999999h6.992999999999999v8.547H34.114z" fill="#ffffff" stroke="#45413c" stroke-linecap="round" stroke-linejoin="round" stroke-width="2"></path><path d="m59.755 104.99859999999998 19.03576 0 0 15.7546 -19.03576 0Z" fill="#debb7e" stroke-width="2"></path><path d="M78.79223999999999 108.28124H59.755v-1.9698799999999999a1.31276 1.31276 0 0 1 1.31276 -1.31276h16.41172a1.31276 1.31276 0 0 1 1.31276 1.31276Z" fill="#f0d3a8" stroke-width="2"></path><path d="m59.755 104.99859999999998 19.03576 0 0 15.7546 -19.03576 0Z" fill="none" stroke="#45413c" stroke-linecap="round" stroke-linejoin="round" stroke-width="2"></path><path d="M66.32028 104.99859999999998h5.90816v7.22092h-5.90816z" fill="#ffffff" stroke="#45413c" stroke-linecap="round" stroke-linejoin="round" stroke-width="2"></path><path d="m17.02 50.58936 25.131880000000002 0 0 23.45504 -25.131880000000002 0Z" fill="#debb7e" stroke-width="2"></path><path d="M42.15336 52.14336a1.55548 1.55548 0 0 0 -1.554 -1.554H18.574a1.55548 1.55548 0 0 0 -1.554 1.554V55.943999999999996a1.55548 1.55548 0 0 1 1.554 -1.554h22.02536a1.55548 1.55548 0 0 1 1.554 1.554Z" fill="#f7e5c6" stroke-width="2"></path><path d="M27.073639999999997 50.58936h5.026079999999999v11.72752h-5.026079999999999z" fill="#ffffff" stroke-width="2"></path><path d="M27.073639999999997 50.58936h5.026079999999999v11.72752h-5.026079999999999z" fill="none" stroke="#45413c" stroke-linecap="round" stroke-linejoin="round" stroke-width="2"></path><path d="m17.02 50.58936 25.131880000000002 0 0 23.45504 -25.131880000000002 0Z" fill="none" stroke="#45413c" stroke-linecap="round" stroke-linejoin="round" stroke-width="2"></path><path d="M56.142996736956 77.107987548316a32.33208 32.33208 0 1 0 55.156478080304 -33.75228161602 32.33208 32.33208 0 1 0 -55.156478080304 33.75228161602Z" fill="#daedf700" stroke="#45413c" stroke-linecap="round" stroke-linejoin="round" stroke-width="2"></path><path d="M73.36498824592 83.934721081068a25.86596 25.86596 0 1 0 20.714133581476 -47.40375741286 25.86596 25.86596 0 1 0 -20.714133581328 47.40375741286Z" fill="#daedf700" stroke-width="2"></path><path d="M102.03268 41.96688A25.864479999999997 25.864479999999997 0 1 0 65.45448 78.5436Z" fill="#ffffff" stroke-width="2"></path><path d="M102.01048 41.9432a25.864479999999997 25.864479999999997 0 1 1 -36.5782 0 25.863000000000003 25.863000000000003 0 0 1 36.5782 0Z" fill="none" stroke="#45413c" stroke-linecap="round" stroke-linejoin="round" stroke-width="2"></path><path d="m139.50036 114.20124 -0.296 0.296a6.285559999999999 6.285559999999999 0 0 1 -8.85632 0L111.10359999999999 95.24243999999999a2.0956799999999998 2.0956799999999998 0 0 1 0 -2.9526000000000003l6.1952799999999995 -6.1937999999999995a2.0942 2.0942 0 0 1 2.95112 0l19.25036 19.24888a6.250039999999999 6.250039999999999 0 0 1 0 8.85632Z" fill="#bf8256" stroke-width="2"></path><path d="m139.50036 114.20124 -0.148 0.148 -25.1304 -25.17776 3.0769200000000003 -3.07544a2.0942 2.0942 0 0 1 2.95112 0l19.25036 19.24888a6.250039999999999 6.250039999999999 0 0 1 0 8.85632Z" fill="#e09f7e" stroke-width="2"></path><path d="m117.25152 86.13600000000001 -7.17356 -7.17356a32.66508 32.66508 0 0 1 -3.4942800000000003 4.12772q-1.15736 1.15736 -2.39908 2.17264l6.9708 6.9708Z" fill="#adc4d9" stroke="#45413c" stroke-linecap="round" stroke-linejoin="round" stroke-width="2"></path><path d="m139.50036 114.20124 -0.296 0.296a6.285559999999999 6.285559999999999 0 0 1 -8.85632 0L111.10359999999999 95.24243999999999a2.0956799999999998 2.0956799999999998 0 0 1 0 -2.9526000000000003l6.1952799999999995 -6.1937999999999995a2.0942 2.0942 0 0 1 2.95112 0l19.25036 19.24888a6.250039999999999 6.250039999999999 0 0 1 0 8.85632Z" fill="none" stroke="#45413c" stroke-linecap="round" stroke-linejoin="round" stroke-width="2"></path><path d="M57.92128 62.08895999999999q-0.06512 -0.91908 -0.06512 -1.85592a25.876320000000003 25.876320000000003 0 0 1 37.19092 -23.26116v22.16448a2.94816 2.94816 0 0 1 -2.9378 2.9526000000000003Z" fill="#f0d3a8" stroke="#45413c" stroke-linecap="round" stroke-linejoin="round" stroke-width="2"></path><path d="m76.072 51.21095999999999 0 6.216" fill="none" stroke="#45413c" stroke-linecap="round" stroke-linejoin="round" stroke-width="2"></path><path d="m79.17999999999999 52.76496 0 4.662" fill="none" stroke="#45413c" stroke-linecap="round" stroke-linejoin="round" stroke-width="2"></path><path d="m82.288 51.21095999999999 0 6.216" fill="none" stroke="#45413c" stroke-linecap="round" stroke-linejoin="round" stroke-width="2"></path><path d="m85.396 52.76496 0 4.662" fill="none" stroke="#45413c" stroke-linecap="round" stroke-linejoin="round" stroke-width="2"></path><path d="m88.50399999999999 51.21095999999999 0 6.216" fill="none" stroke="#45413c" stroke-linecap="round" stroke-linejoin="round" stroke-width="2"></path><path d="m77.65856 35.076 0 5.4671199999999995h-10.71668a25.799359999999997 25.799359999999997 0 0 1 10.71668 -5.4671199999999995Z" fill="#ffffff" stroke="#45413c" stroke-linecap="round" stroke-linejoin="round" stroke-width="2"></path></svg>